<svg width="49" height="46" viewBox="0 0 49 46" fill="none" xmlns="http://www.w3.org/2000/svg">
<path d="M47.6289 23.2496C47.6289 35.3579 37.1114 45.2306 24.0645 45.2306C11.0176 45.2306 0.5 35.3579 0.5 23.2496C0.5 11.1413 11.0176 1.26855 24.0645 1.26855C37.1114 1.26855 47.6289 11.1413 47.6289 23.2496Z" stroke="black"/>
<path d="M29.7524 18.639C30.4954 18.639 31.0978 18.0763 31.0978 17.3821C31.0978 16.688 30.4954 16.1252 29.7524 16.1252C29.0093 16.1252 28.407 16.688 28.407 17.3821C28.407 18.0763 29.0093 18.639 29.7524 18.639Z" fill="black"/>
<path d="M23.7675 17.5917C22.6288 17.5917 21.5157 17.9071 20.5689 18.4981C19.6222 19.0891 18.8843 19.9291 18.4485 20.9119C18.0127 21.8946 17.8987 22.9761 18.1209 24.0194C18.343 25.0627 18.8913 26.021 19.6965 26.7732C20.5017 27.5254 21.5275 28.0376 22.6443 28.2452C23.7611 28.4527 24.9187 28.3462 25.9707 27.9391C27.0227 27.532 27.9219 26.8427 28.5545 25.9582C29.1871 25.0737 29.5247 24.0338 29.5247 22.9701C29.5247 21.5436 28.9182 20.1756 27.8385 19.167C26.7588 18.1583 25.2944 17.5917 23.7675 17.5917ZM23.7675 26.4614C23.0283 26.4614 22.3058 26.2567 21.6912 25.873C21.0766 25.4894 20.5976 24.9441 20.3147 24.3062C20.0319 23.6682 19.9578 22.9662 20.1021 22.289C20.2463 21.6117 20.6022 20.9896 21.1249 20.5013C21.6475 20.0131 22.3134 19.6805 23.0384 19.5458C23.7634 19.4111 24.5148 19.4803 25.1977 19.7445C25.8806 20.0088 26.4643 20.4563 26.8749 21.0304C27.2856 21.6046 27.5047 22.2796 27.5047 22.9701C27.5047 23.896 27.111 24.7841 26.4101 25.4388C25.7093 26.0936 24.7587 26.4614 23.7675 26.4614Z" fill="black"/>
<path d="M23.7672 14.3849C26.7607 14.3849 27.1158 14.3953 28.2977 14.446C29.0085 14.4539 29.7127 14.5758 30.3793 14.8065C30.863 14.9808 31.3022 15.2477 31.6688 15.5902C32.0353 15.9326 32.3211 16.3429 32.5077 16.7948C32.7546 17.4176 32.8851 18.0754 32.8936 18.7395C32.9477 19.8436 32.959 20.1753 32.959 22.9727C32.959 25.7701 32.9477 26.1001 32.8936 27.2042C32.8851 27.8683 32.7546 28.5261 32.5077 29.1489C32.3211 29.6007 32.0353 30.0111 31.6688 30.3535C31.3022 30.6959 30.863 30.9629 30.3793 31.1372C29.7127 31.3679 29.0085 31.4898 28.2977 31.4977C27.1158 31.5483 26.7607 31.5588 23.7672 31.5588C20.7736 31.5588 20.4186 31.5483 19.2367 31.4977C18.5258 31.4898 17.8217 31.3679 17.155 31.1372C16.6714 30.9629 16.2321 30.6959 15.8656 30.3535C15.499 30.0111 15.2133 29.6007 15.0267 29.1489C14.7798 28.5261 14.6492 27.8683 14.6408 27.2042C14.5866 26.1001 14.5754 25.7684 14.5754 22.9718C14.5754 20.1753 14.5866 19.8436 14.6408 18.7395C14.6492 18.0754 14.7798 17.4176 15.0267 16.7948C15.2133 16.3429 15.499 15.9326 15.8656 15.5902C16.2321 15.2477 16.6714 14.9808 17.155 14.8065C17.8217 14.5758 18.5258 14.4539 19.2367 14.446C20.4186 14.3953 20.7736 14.3849 23.7672 14.3849ZM23.7672 12.4978C20.7223 12.4978 20.3401 12.51 19.1442 12.5606C18.2143 12.5782 17.2944 12.7429 16.4235 13.0477C15.6786 13.3168 15.0021 13.7283 14.4373 14.2559C13.8726 14.7835 13.4321 15.4155 13.144 16.1113C12.8176 16.9252 12.6414 17.785 12.6227 18.6539C12.5685 19.7711 12.5554 20.1264 12.5554 22.9718C12.5554 25.8173 12.5685 26.1734 12.6227 27.2906C12.6415 28.1593 12.8177 29.0187 13.144 29.8323C13.4321 30.5282 13.8726 31.1602 14.4373 31.6878C15.0021 32.2154 15.6786 32.6269 16.4235 32.896C17.2947 33.2009 18.215 33.3656 19.1451 33.383C20.3411 33.4336 20.7223 33.4459 23.7672 33.4459C26.8121 33.4459 27.1942 33.4336 28.3902 33.383C29.3203 33.3656 30.2406 33.2009 31.1118 32.896C31.8567 32.6269 32.5332 32.2154 33.098 31.6878C33.6627 31.1602 34.1032 30.5282 34.3913 29.8323C34.7173 29.0184 34.8933 28.1587 34.9117 27.2897C34.9659 26.1725 34.9789 25.8173 34.9789 22.9718C34.9789 20.1264 34.9659 19.7703 34.9117 18.653C34.8929 17.7844 34.7166 16.925 34.3903 16.1113C34.1023 15.4155 33.6618 14.7835 33.097 14.2559C32.5323 13.7283 31.8558 13.3168 31.1109 13.0477C30.2396 12.7431 29.3193 12.5787 28.3892 12.5615C27.1933 12.5091 26.813 12.4978 23.7672 12.4978Z" fill="black"/>
</svg>
