<svg width="49" height="46" viewBox="0 0 49 46" fill="none" xmlns="http://www.w3.org/2000/svg">
<path d="M48.2289 23.2496C48.2289 35.3579 37.7113 45.2306 24.6644 45.2306C11.6175 45.2306 1.09998 35.3579 1.09998 23.2496C1.09998 11.1413 11.6175 1.26855 24.6644 1.26855C37.7113 1.26855 48.2289 11.1413 48.2289 23.2496Z" stroke="black"/>
<path d="M26.6619 33.2886V23.8204H29.9575L30.4474 20.1133H26.6619V17.752C26.6619 16.6822 26.9694 15.9498 28.5534 15.9498H30.5606V12.6447C29.584 12.5433 28.6024 12.4943 27.6202 12.498C24.7072 12.498 22.7071 14.2216 22.7071 17.3858V20.1063H19.433V23.8135H22.7143V33.2886H26.6619Z" fill="black"/>
</svg>
