<svg width="49" height="46" viewBox="0 0 49 46" fill="none" xmlns="http://www.w3.org/2000/svg">
<path d="M48.4289 23.2496C48.4289 35.3579 37.9113 45.2306 24.8644 45.2306C11.8175 45.2306 1.29993 35.3579 1.29993 23.2496C1.29993 11.1413 11.8175 1.26855 24.8644 1.26855C37.9113 1.26855 48.4289 11.1413 48.4289 23.2496Z" stroke="black"/>
<path d="M24.644 12.4978C20.0185 12.4978 15.4479 15.3469 15.4479 19.9581C15.4479 22.8905 17.233 24.5567 18.3149 24.5567C18.7614 24.5567 19.0181 23.407 19.0181 23.0825C19.0181 22.6952 17.9499 21.8702 17.9499 20.258C17.9499 16.9091 20.7088 14.5345 24.279 14.5345C27.3487 14.5345 29.6207 16.1466 29.6207 19.1084C29.6207 21.3203 28.6607 25.469 25.5499 25.469C24.4276 25.469 23.4669 24.7193 23.4669 23.6449C23.4669 22.0701 24.657 20.5459 24.657 18.9211C24.657 16.164 20.4239 16.6638 20.4239 19.9961C20.4239 20.6959 20.5184 21.4703 20.8566 22.1081C20.2342 24.5826 18.9633 28.2688 18.9633 30.818C18.9633 31.6051 19.0852 32.3802 19.166 33.1673C19.3189 33.3259 19.2424 33.3092 19.4769 33.2299C21.7488 30.3555 21.6681 29.7937 22.6959 26.0322C23.2505 27.0072 24.6837 27.5317 25.8197 27.5317C30.6067 27.5317 32.7575 23.2204 32.7575 19.3343C32.7575 15.1983 28.8894 12.4991 24.6433 12.4991L24.644 12.4978Z" fill="black"/>
</svg>
