<svg width="49" height="46" viewBox="0 0 49 46" fill="none" xmlns="http://www.w3.org/2000/svg">
<path d="M48.0289 23.2496C48.0289 35.3579 37.5113 45.2306 24.4644 45.2306C11.4175 45.2306 0.899963 35.3579 0.899963 23.2496C0.899963 11.1413 11.4175 1.26855 24.4644 1.26855C37.5113 1.26855 48.0289 11.1413 48.0289 23.2496Z" stroke="black"/>
<path d="M36.7074 16.4221C36.0305 17.3695 35.2 18.1771 34.2161 18.8449C34.2258 19.024 34.2306 19.2264 34.2306 19.4522C34.2306 20.7066 34.0363 21.9625 33.6476 23.2199C33.2588 24.4773 32.6651 25.6809 31.8662 26.8306C31.0674 27.9804 30.1159 28.9989 29.0116 29.8863C27.9073 30.7737 26.5799 31.4813 25.0294 32.009C23.4789 32.5367 21.8172 32.8006 20.0443 32.8006C17.2773 32.8006 14.7292 32.0977 12.4 30.692C12.8134 30.7353 13.2099 30.7569 13.5895 30.7569C15.901 30.7569 17.9656 30.0869 19.7833 28.747C18.7055 28.7285 17.7403 28.4163 16.8876 27.8105C16.0349 27.2047 15.4481 26.4307 15.1272 25.4883C15.4444 25.5452 15.7574 25.5736 16.0664 25.5736C16.511 25.5736 16.9486 25.519 17.3791 25.4099C16.2289 25.1931 15.2747 24.6541 14.5165 23.7927C13.7583 22.9314 13.3793 21.9373 13.3793 20.8103V20.7523C14.0853 21.1201 14.8383 21.3157 15.6384 21.3392C14.9571 20.9118 14.4168 20.3544 14.0178 19.6671C13.6187 18.9798 13.4191 18.236 13.4191 17.4357C13.4191 16.5917 13.6439 15.8057 14.0934 15.0778C15.3443 16.5221 16.8599 17.6765 18.6403 18.5409C20.4208 19.4052 22.3309 19.8853 24.3706 19.981C24.2836 19.6399 24.2401 19.2838 24.2399 18.913C24.2399 17.6181 24.7269 16.5124 25.7009 15.596C26.675 14.6795 27.8501 14.2213 29.2263 14.2213C30.6671 14.2213 31.8807 14.715 32.8671 15.7023C33.9942 15.4922 35.0494 15.1123 36.0329 14.5625C35.654 15.6845 34.9239 16.5501 33.8425 17.1592C34.8364 17.0481 35.7913 16.8024 36.7073 16.4221H36.7074Z" fill="black"/>
</svg>
